<svg width="16" height="16" viewBox="0 0 16 16" fill="none" xmlns="http://www.w3.org/2000/svg">
<rect width="16" height="16" fill="white"/>
<path d="M10.8852 7.81143C11.3989 7.99429 11.7978 8.29143 12.082 8.70286C12.3661 9.11429 12.5082 9.62857 12.5082 10.2457C12.5082 11.4571 12.0601 12.3886 11.1639 13.04C10.2787 13.68 9.06557 14 7.52459 14H2L4.29508 2H9.37705C10.5355 2 11.4262 2.22857 12.0492 2.68571C12.6831 3.13143 13 3.78286 13 4.64C13 5.41714 12.8033 6.08 12.4098 6.62857C12.0273 7.16571 11.5191 7.56 10.8852 7.81143ZM5.65574 3.38857L4.91803 7.22857H8.27869C9.20765 7.22857 9.93989 7.03429 10.4754 6.64571C11.0219 6.24571 11.2951 5.66857 11.2951 4.91429C11.2951 4.4 11.0984 4.01714 10.7049 3.76572C10.3224 3.51429 9.76503 3.38857 9.03279 3.38857H5.65574ZM7.63934 12.6114C8.6776 12.6114 9.47541 12.4114 10.0328 12.0114C10.6011 11.6 10.8852 11.0171 10.8852 10.2629C10.8852 9.66857 10.6831 9.24571 10.2787 8.99429C9.88525 8.74286 9.28962 8.61714 8.4918 8.61714H4.65574L3.90164 12.6114H7.63934Z" fill="#481C03"/>
<path d="M10.8997 11.1357L10.8997 11.1417L10.8997 11.7385L10.8997 11.841L10.9952 11.8782L12.7065 12.5463L10.9958 13.2048L10.8997 13.2418L10.8997 13.3448L10.8997 14L10.8997 14.2195L11.1042 14.1398L14.0048 13.009L14.1003 12.9718V12.8692V12.2702V12.1678L14.0049 12.1305L11.477 11.1417H13.9503H14.1003V10.9917L14.1003 9.80104C14.1003 9.49512 14.0363 9.21882 13.9037 8.97647L13.9033 8.97583C13.7683 8.73177 13.5782 8.54163 13.3352 8.40806C13.0913 8.27154 12.8114 8.20577 12.5 8.20577C12.4176 8.20577 12.3374 8.21037 12.2595 8.21967C12.3321 8.19327 12.399 8.15722 12.4593 8.11052L12.4593 8.11053L12.4608 8.10929C12.5952 8.00231 12.6959 7.8723 12.7588 7.71962C12.8148 7.58388 12.8693 7.41339 12.9227 7.21008L12.9227 7.21008L12.923 7.20906C12.9556 7.08141 12.9845 6.98472 13.0095 6.91683L13.0095 6.91684L13.0101 6.91535C13.032 6.85399 13.0589 6.81189 13.0873 6.78325L13.0874 6.78341L13.093 6.77714C13.1076 6.76066 13.1227 6.75282 13.1506 6.75282C13.1912 6.75282 13.2228 6.76656 13.2548 6.81129C13.2849 6.85712 13.3113 6.94805 13.3113 7.10829C13.3113 7.24483 13.287 7.38257 13.2372 7.52215C13.1869 7.66306 13.1215 7.78121 13.0424 7.87869L12.9149 8.0358L13.1023 8.11213L13.6078 8.31806L13.7085 8.35908L13.7788 8.27614C13.8939 8.14029 13.9835 7.96694 14.0513 7.76194L14.0513 7.76195L14.052 7.75955C14.1174 7.55016 14.15 7.33413 14.15 7.11204C14.15 6.85629 14.1073 6.62941 14.0151 6.43693C13.9247 6.24814 13.7989 6.09927 13.6349 5.99935C13.4727 5.89973 13.2935 5.85 13.1008 5.85C12.8845 5.85 12.6944 5.90174 12.5469 6.02164C12.415 6.12647 12.3162 6.25525 12.2536 6.40711C12.1976 6.54285 12.1432 6.71333 12.0897 6.91665L12.0897 6.91664L12.0891 6.91918C12.0434 7.10628 11.9999 7.23627 11.9607 7.31634C11.9463 7.34251 11.9324 7.35513 11.9217 7.36174C11.9112 7.36825 11.8958 7.3739 11.8702 7.3739C11.8184 7.3739 11.7824 7.35651 11.7499 7.31418C11.7173 7.26939 11.6887 7.18182 11.6887 7.02592C11.6887 6.81675 11.7539 6.60188 11.8936 6.37927L11.992 6.22254L11.8183 6.15874L11.3086 5.97153L11.1996 5.93148L11.1335 6.027C11.0399 6.16239 10.9698 6.31794 10.9217 6.49168C10.8739 6.66458 10.85 6.84154 10.85 7.02218C10.85 7.27792 10.8927 7.5048 10.9849 7.69729L10.9849 7.69729L10.9853 7.69808C11.0762 7.88513 11.2038 8.03229 11.3701 8.13164C11.5303 8.229 11.7093 8.27673 11.9033 8.27673C11.9319 8.27673 11.9599 8.27585 11.9875 8.27406C11.8739 8.30672 11.7662 8.35127 11.6648 8.40807C11.4218 8.54162 11.233 8.73184 11.1006 8.97614C10.9652 9.21851 10.8997 9.49496 10.8997 9.80104L10.8997 10.9159L10.8997 10.9917L10.8997 11.1357ZM11.9486 9.31448L11.9486 9.3145L11.9504 9.31276C12.0764 9.18909 12.2535 9.11982 12.5 9.11982C12.7464 9.11982 12.9255 9.18904 13.0546 9.3136C13.1804 9.43511 13.2492 9.6018 13.2492 9.831V10.2351H11.7508L11.7508 9.831C11.7508 9.60259 11.8204 9.43618 11.9486 9.31448Z" fill="#FE9E45" stroke="white" stroke-width="0.3"/>
</svg>
