<svg width="192" height="192" viewBox="0 0 192 192" fill="none" xmlns="http://www.w3.org/2000/svg">
<rect width="192" height="192" fill="white"/>
<path d="M136.355 92.5486C143.312 94.9257 148.716 98.7886 152.565 104.137C156.414 109.486 158.338 116.171 158.338 124.194C158.338 139.943 152.269 152.051 140.13 160.52C128.139 168.84 111.706 173 90.8331 173H16L47.0879 17H115.925C131.617 17 143.683 19.9714 152.121 25.9143C160.707 31.7086 165 40.1771 165 51.32C165 61.4229 162.335 70.04 157.006 77.1714C151.825 84.1543 144.941 89.28 136.355 92.5486ZM65.5186 35.0514L55.5261 84.9714H101.048C113.631 84.9714 123.549 82.4457 130.803 77.3943C138.205 72.1943 141.906 64.6914 141.906 54.8857C141.906 48.2 139.241 43.2229 133.912 39.9543C128.731 36.6857 121.181 35.0514 111.262 35.0514H65.5186ZM92.3875 154.949C106.451 154.949 117.258 152.349 124.808 147.149C132.506 141.8 136.355 134.223 136.355 124.417C136.355 116.691 133.616 111.194 128.139 107.926C122.809 104.657 114.741 103.023 103.934 103.023H51.9732L41.7586 154.949H92.3875Z" fill="#481C03"/>
<path d="M140.672 136.194L140.463 136.104V136.331L140.463 144.47V144.569L140.554 144.607L165.782 155.387L140.555 166.016L140.463 166.055V166.154L140.463 175V175.227L140.672 175.138L176.446 159.873L176.537 159.834V159.735V151.647V151.548L176.446 151.509L140.672 136.194ZM140.463 134.388V134.538H140.613H176.387H176.537V134.388V118.314C176.537 114.453 175.8 111.043 174.323 108.087L174.323 108.086C172.812 105.097 170.698 102.784 167.981 101.151C165.263 99.4841 162.101 98.6529 158.5 98.6529C154.899 98.6529 151.737 99.4841 149.019 101.151C146.302 102.784 144.205 105.098 142.728 108.087C141.217 111.043 140.463 114.453 140.463 118.314L140.463 134.388ZM150.534 110.381L150.535 110.379C152.478 108.292 155.127 107.243 158.5 107.243C161.873 107.243 164.54 108.292 166.517 110.38C168.461 112.435 169.44 115.209 169.44 118.718V126.049H147.56L147.56 118.718C147.56 115.21 148.556 112.437 150.534 110.381ZM176.019 90.194L176.02 90.1917C176.773 87.5496 177.15 84.823 177.15 82.0125C177.15 78.763 176.654 75.9949 175.655 73.7132C174.659 71.4352 173.313 69.7251 171.615 68.5939C169.887 67.4317 167.984 66.85 165.91 66.85C163.499 66.85 161.57 67.4806 160.138 68.7577C158.723 69.9869 157.687 71.4732 157.031 73.215C156.381 74.9415 155.732 77.1553 155.083 79.8545L155.083 79.8545L155.083 79.8569C154.505 82.4473 153.928 84.3721 153.356 85.6384C153.058 86.2431 152.691 86.6875 152.258 86.981C151.825 87.2741 151.319 87.4227 150.732 87.4227C149.559 87.4227 148.615 86.9112 147.892 85.8704C147.167 84.7952 146.794 83.1297 146.794 80.8499C146.794 77.6112 147.722 74.3679 149.585 71.1184L149.67 70.9689L149.51 70.9046L143.224 68.3772L143.108 68.3306L143.042 68.4363C142.01 70.0692 141.221 71.9714 140.672 74.1409C140.124 76.3098 139.85 78.5294 139.85 80.7994C139.85 84.0489 140.346 86.817 141.345 89.0987L141.345 89.0995C142.342 91.3445 143.705 93.0373 145.437 94.168C147.132 95.2968 149.034 95.8608 151.141 95.8608C153.551 95.8608 155.497 95.2473 156.962 94.0055L156.963 94.0042C158.412 92.7416 159.466 91.2385 160.122 89.4958C160.773 87.7693 161.422 85.5555 162.07 82.8563L162.07 82.8554C162.478 81.105 162.852 79.7287 163.19 78.7243L163.191 78.7229C163.527 77.693 163.978 76.8707 164.539 76.2497L164.54 76.2498L164.545 76.2434C165.062 75.6039 165.718 75.2881 166.523 75.2881C167.622 75.2881 168.515 75.8106 169.207 76.8859C169.866 77.9624 170.206 79.6467 170.206 81.962C170.206 84.0347 169.868 86.1083 169.192 88.1833C168.514 90.2597 167.618 92.0475 166.505 93.549L166.394 93.6992L166.565 93.7754L172.799 96.5555L172.907 96.6034L172.979 96.5103C174.22 94.9079 175.232 92.8005 176.019 90.194Z" fill="#FE9E45" stroke="white" stroke-width="0.3"/>
</svg>
